# xmcd
#
# Track frame offsets: 
#        150
#        18587
#        39960
#        57447
#        103805
#
# Disc length: 1747 seconds
#
# Revision: 2
# Processed by: cddbd v1.4PL0 Copyright (c) Steve Scherf et al.
# Submitted via: ExactAudioCopy v0.90b4
#
DISCID=3b06d105
DTITLE=Michael Jackson - Stranger in Moscow
DYEAR=1996
DGENRE=Pop
TTITLE0=Stranger in Moscow (Album Edit)
TTITLE1=Stranger in Moscow (Basement Boys Spensane Vocal R&B Remix)
TTITLE2=Stranger in Moscow (Hani's Radio Edit)
TTITLE3=Stranger in Moscow (Hani's Num Club Mix)
TTITLE4=Stranger in Moscow (Hani's Extended Chill Hop Mix)
EXTD=
EXTT0=
EXTT1=
EXTT2=
EXTT3=
EXTT4=
PLAYORDER=
